<svg xmlns="http://www.w3.org/2000/svg" xmlns:xlink="http://www.w3.org/1999/xlink" style="margin:auto;background:#eeedfd;display:block;z-index:1;position:relative" width="1920" height="1080" preserveAspectRatio="xMidYMid" viewBox="0 0 1920 1080">
    <g transform="translate(960,540) scale(1,1) translate(-960,-540)">
        <path id="path0" d="M 667.3694407149926 830.6129246845409
c 0 21.931224717504698 -5.3661507287511485 6.29939433375135 -11.665545062502499 6.29939433375135
S 644.0383505899877 852.5441494020456 644.0383505899877 830.6129246845409
s 5.3661507287511485 -6.29939433375135 11.665545062502499 -6.29939433375135
S 667.3694407149926 808.6816999670361 667.3694407149926 830.6129246845409
z" fill="none" stroke="none"></path>
        <circle cx="0" cy="0" r="3.511607231361925" fill="#e0ff77">
            <animateMotion begin="-4.449623712626378s" dur="10s" repeatCount="indefinite">
                <mpath xlink:href="#path0"></mpath>
            </animateMotion>
        </circle>
        <path id="path1" d="M 425.412817884414 89.17325172495855
c 0 31.348746787632503 -7.67043804378242 9.00442726878806 -16.67486531257048 9.00442726878806
S 392.063087259273 120.52199851259105 392.063087259273 89.17325172495855
s 7.67043804378242 -9.00442726878806 16.67486531257048 -9.00442726878806
S 425.412817884414 57.82450493732604 425.412817884414 89.17325172495855
z" fill="none" stroke="none"></path>
        <circle cx="0" cy="0" r="4.454923750959454" fill="#de9dd6">
            <animateMotion begin="-3.573673067871894s" dur="10s" repeatCount="indefinite">
                <mpath xlink:href="#path1"></mpath>
            </animateMotion>
        </circle>
        <path id="path2" d="M 1003.9608739602284 638.9560847120543
c 0 23.859985457439947 -5.8380815480970085 6.853400078200837 -12.691481626297845 6.853400078200837
S 978.5779107076326 662.8160701694943 978.5779107076326 638.9560847120543
s 5.8380815480970085 -6.853400078200837 12.691481626297845 -6.853400078200837
S 1003.9608739602284 615.0960992546144 1003.9608739602284 638.9560847120543
z" fill="none" stroke="none"></path>
        <circle cx="0" cy="0" r="4.553458738047443" fill="#ff708e">
            <animateMotion begin="-9.821620743909634s" dur="10s" repeatCount="indefinite">
                <mpath xlink:href="#path2"></mpath>
            </animateMotion>
        </circle>
        <path id="path3" d="M 541.0669457519026 272.962301619555
c 0 21.422819715941824 -5.241753760283637 6.153363109898184 -11.39511687018182 6.153363109898184
S 518.276712011539 294.3851213354968 518.276712011539 272.962301619555
s 5.241753760283637 -6.153363109898184 11.39511687018182 -6.153363109898184
S 541.0669457519026 251.53948190361317 541.0669457519026 272.962301619555
z" fill="none" stroke="none"></path>
        <circle cx="0" cy="0" r="4.970707867367516" fill="#de9dd6">
            <animateMotion begin="-0.9400992730904545s" dur="10s" repeatCount="indefinite">
                <mpath xlink:href="#path3"></mpath>
            </animateMotion>
        </circle>
        <path id="path4" d="M 909.7549446747324 134.77242388990112
c 0 23.257463400917455 -5.690655938522355 6.680335232178418 -12.370991170700773 6.680335232178418
S 885.0129623333308 158.02988729081858 885.0129623333308 134.77242388990112
s 5.690655938522355 -6.680335232178418 12.370991170700773 -6.680335232178418
S 909.7549446747324 111.51496048898366 909.7549446747324 134.77242388990112
z" fill="none" stroke="none"></path>
        <circle cx="0" cy="0" r="3.1836584371058163" fill="#de9dd6">
            <animateMotion begin="-6.044792977326213s" dur="10s" repeatCount="indefinite">
                <mpath xlink:href="#path4"></mpath>
            </animateMotion>
        </circle>
        <path id="path5" d="M 147.02773981499755 766.9919830813005
c 0 21.458938279161718 -5.250591281071483 6.163737590823047 -11.41432887189453 6.163737590823047
S 124.1990820712085 788.4509213604623 124.1990820712085 766.9919830813005
s 5.250591281071483 -6.163737590823047 11.41432887189453 -6.163737590823047
S 147.02773981499755 745.5330448021388 147.02773981499755 766.9919830813005
z" fill="none" stroke="none"></path>
        <circle cx="0" cy="0" r="2.5360490456152993" fill="#9df871">
            <animateMotion begin="-2.3915325879052576s" dur="10s" repeatCount="indefinite">
                <mpath xlink:href="#path5"></mpath>
            </animateMotion>
        </circle>
        <path id="path6" d="M 1613.9845971485377 423.86402361843784
c 0 21.6182477205695 -5.289571250777643 6.209496685695495 -11.499067936473137 6.209496685695495
S 1590.9864612755912 445.48227133900735 1590.9864612755912 423.86402361843784
s 5.289571250777643 -6.209496685695495 11.499067936473137 -6.209496685695495
S 1613.9845971485377 402.2457758978683 1613.9845971485377 423.86402361843784
z" fill="none" stroke="none"></path>
        <circle cx="0" cy="0" r="4.831448062338169" fill="#9df871">
            <animateMotion begin="-2.192773923873764s" dur="10s" repeatCount="indefinite">
                <mpath xlink:href="#path6"></mpath>
            </animateMotion>
        </circle>
        <path id="path7" d="M 1049.6553375883916 273.0353587714026
c 0 19.625699417900286 -4.80203283629475 5.637168981737316 -10.439201818032068 5.637168981737316
S 1028.7769339523277 292.66105818930293 1028.7769339523277 273.0353587714026
s 4.80203283629475 -5.637168981737316 10.439201818032068 -5.637168981737316
S 1049.6553375883916 253.40965935350235 1049.6553375883916 273.0353587714026
z" fill="none" stroke="none"></path>
        <circle cx="0" cy="0" r="4.96193266942206" fill="#9df871">
            <animateMotion begin="-4.598435462456898s" dur="10s" repeatCount="indefinite">
                <mpath xlink:href="#path7"></mpath>
            </animateMotion>
        </circle>
        <path id="path8" d="M 417.70425424518913 378.4705359933151
c 0 26.527559066785074 -6.490785729106985 7.619618029821244 -14.110403758928229 7.619618029821244
S 389.4834467273327 404.9980950601001 389.4834467273327 378.4705359933151
s 6.490785729106985 -7.619618029821244 14.110403758928229 -7.619618029821244
S 417.70425424518913 351.94297692653004 417.70425424518913 378.4705359933151
z" fill="none" stroke="none"></path>
        <circle cx="0" cy="0" r="3.9247840142446613" fill="#de9dd6">
            <animateMotion begin="-0.4555463924763359s" dur="10s" repeatCount="indefinite">
                <mpath xlink:href="#path8"></mpath>
            </animateMotion>
        </circle>
        <path id="path9" d="M 473.55093635486077 95.41588944175155
c 0 35.82310212890514 -8.765227116647 10.289614441281264 -19.054841557928267 10.289614441281264
S 435.4412532390042 131.23899157065668 435.4412532390042 95.41588944175155
s 8.765227116647 -10.289614441281264 19.054841557928267 -10.289614441281264
S 473.55093635486077 59.592787312846404 473.55093635486077 95.41588944175155
z" fill="none" stroke="none"></path>
        <circle cx="0" cy="0" r="3.063278631958726" fill="#ff708e">
            <animateMotion begin="-6.426161550880521s" dur="10s" repeatCount="indefinite">
                <mpath xlink:href="#path9"></mpath>
            </animateMotion>
        </circle>
        <path id="path10" d="M 1631.5882544931249 384.6280776331345
c 0 20.50598362871447 -5.017421526174817 5.890016574205221 -10.907438100380038 5.890016574205221
S 1609.773378292365 405.134061261849 1609.773378292365 384.6280776331345
s 5.017421526174817 -5.890016574205221 10.907438100380038 -5.890016574205221
S 1631.5882544931249 364.12209400442003 1631.5882544931249 384.6280776331345
z" fill="none" stroke="none"></path>
        <circle cx="0" cy="0" r="2.8153038410473155" fill="#51cacc">
            <animateMotion begin="-6.104024232942723s" dur="10s" repeatCount="indefinite">
                <mpath xlink:href="#path10"></mpath>
            </animateMotion>
        </circle>
        <path id="path11" d="M 301.9062653867884 628.5986460465293
c 0 26.9627949911649 -6.5972796254977935 7.744632603845237 -14.34191222934303 7.744632603845237
S 273.2224409281023 655.5614410376942 273.2224409281023 628.5986460465293
s 6.5972796254977935 -7.744632603845237 14.34191222934303 -7.744632603845237
S 301.9062653867884 601.6358510553645 301.9062653867884 628.5986460465293
z" fill="none" stroke="none"></path>
        <circle cx="0" cy="0" r="3.737510391700555" fill="#51cacc">
            <animateMotion begin="-2.83954419927818s" dur="10s" repeatCount="indefinite">
                <mpath xlink:href="#path11"></mpath>
            </animateMotion>
        </circle>
        <path id="path12" d="M 1703.4212526185222 98.77512613601682
c 0 22.50241300125314 -5.505909564136405 6.463459053551434 -11.969368617687838 6.463459053551434
S 1679.4825153831464 121.27753913726997 1679.4825153831464 98.77512613601682
s 5.505909564136405 -6.463459053551434 11.969368617687838 -6.463459053551434
S 1703.4212526185222 76.27271313476368 1703.4212526185222 98.77512613601682
z" fill="none" stroke="none"></path>
        <circle cx="0" cy="0" r="3.053382134039422" fill="#ff708e">
            <animateMotion begin="-1.4476389056074468s" dur="10s" repeatCount="indefinite">
                <mpath xlink:href="#path12"></mpath>
            </animateMotion>
        </circle>
        <path id="path13" d="M 1908.3546088177277 789.6535708975581
c 0 35.712974227665896 -8.73828092804591 10.257981959010417 -18.99626288705633 10.257981959010417
S 1870.3620830436153 825.366545125224 1870.3620830436153 789.6535708975581
s 8.73828092804591 -10.257981959010417 18.99626288705633 -10.257981959010417
S 1908.3546088177277 753.9405966698922 1908.3546088177277 789.6535708975581
z" fill="none" stroke="none"></path>
        <circle cx="0" cy="0" r="3.9011649974324585" fill="#51cacc">
            <animateMotion begin="-3.005629952509159s" dur="10s" repeatCount="indefinite">
                <mpath xlink:href="#path13"></mpath>
            </animateMotion>
        </circle>
        <path id="path14" d="M 1533.7806097355704 158.60635986325173
c 0 27.34993472776377 -6.692005305729432 7.855832315421509 -14.54783762115094 7.855832315421509
S 1504.6849344932687 185.9562945910155 1504.6849344932687 158.60635986325173
s 6.692005305729432 -7.855832315421509 14.54783762115094 -7.855832315421509
S 1533.7806097355704 131.25642513548794 1533.7806097355704 158.60635986325173
z" fill="none" stroke="none"></path>
        <circle cx="0" cy="0" r="3.5032057035548156" fill="#51cacc">
            <animateMotion begin="-5.57185654277748s" dur="10s" repeatCount="indefinite">
                <mpath xlink:href="#path14"></mpath>
            </animateMotion>
        </circle>
        <path id="path15" d="M 666.4358187193368 492.9823367524327
c 0 25.89076767257525 -6.3349750688216035 7.436709863399274 -13.771684932220879 7.436709863399274
S 638.8924488548951 518.8731044250079 638.8924488548951 492.9823367524327
s 6.3349750688216035 -7.436709863399274 13.771684932220879 -7.436709863399274
S 666.4358187193368 467.09156907985744 666.4358187193368 492.9823367524327
z" fill="none" stroke="none"></path>
        <circle cx="0" cy="0" r="3.732776759592857" fill="#9df871">
            <animateMotion begin="-7.421000426424459s" dur="10s" repeatCount="indefinite">
                <mpath xlink:href="#path15"></mpath>
            </animateMotion>
        </circle>
        <path id="path16" d="M 152.23789340524158 946.3872689086733
c 0 32.51351742961714 -7.955435115757384 9.338989048932582 -17.294424164689964 9.338989048932582
S 117.64904507586166 978.9007863382903 117.64904507586166 946.3872689086733
s 7.955435115757384 -9.338989048932582 17.294424164689964 -9.338989048932582
S 152.23789340524158 913.8737514790562 152.23789340524158 946.3872689086733
z" fill="none" stroke="none"></path>
        <circle cx="0" cy="0" r="3.5077006057956153" fill="#9df871">
            <animateMotion begin="-2.417833552391322s" dur="10s" repeatCount="indefinite">
                <mpath xlink:href="#path16"></mpath>
            </animateMotion>
        </circle>
        <path id="path17" d="M 1589.0906695555877 445.4440882859041
c 0 25.94697953562677 -6.348729035312933 7.452855824063009 -13.801584859375941 7.452855824063009
S 1561.487499836836 471.3910678215309 1561.487499836836 445.4440882859041
s 6.348729035312933 -7.452855824063009 13.801584859375941 -7.452855824063009
S 1589.0906695555877 419.49710875027733 1589.0906695555877 445.4440882859041
z" fill="none" stroke="none"></path>
        <circle cx="0" cy="0" r="2.641371672191454" fill="#e0ff77">
            <animateMotion begin="-5.343684419475699s" dur="10s" repeatCount="indefinite">
                <mpath xlink:href="#path17"></mpath>
            </animateMotion>
        </circle>
        <path id="path18" d="M 236.3009612916136 824.6929089827893
c 0 24.61721157941121 -6.0233602800687 7.070901198341518 -13.094261478410218 7.070901198341518
S 210.11243833479318 849.3101205622005 210.11243833479318 824.6929089827893
s 6.0233602800687 -7.070901198341518 13.094261478410218 -7.070901198341518
S 236.3009612916136 800.0756974033781 236.3009612916136 824.6929089827893
z" fill="none" stroke="none"></path>
        <circle cx="0" cy="0" r="3.7056711710965162" fill="#e0ff77">
            <animateMotion begin="-9.850958825842172s" dur="10s" repeatCount="indefinite">
                <mpath xlink:href="#path18"></mpath>
            </animateMotion>
        </circle>
        <path id="path19" d="M 676.5371203969788 279.8392651684178
c 0 25.40668558340401 -6.2165294512584275 7.297665007999024 -13.514194459257451 7.297665007999024
S 649.508731478464 305.2459507518218 649.508731478464 279.8392651684178
s 6.2165294512584275 -7.297665007999024 13.514194459257451 -7.297665007999024
S 676.5371203969788 254.4325795850138 676.5371203969788 279.8392651684178
z" fill="none" stroke="none"></path>
        <circle cx="0" cy="0" r="4.829182503681711" fill="#de9dd6">
            <animateMotion begin="-5.194258870503294s" dur="10s" repeatCount="indefinite">
                <mpath xlink:href="#path19"></mpath>
            </animateMotion>
        </circle>
        <path id="path20" d="M 725.3946062337076 1061.9233074341903
c 0 31.952369199307803 -7.818132889192334 9.177808174269263 -16.995941063461597 9.177808174269263
S 691.4027241067844 1093.8756766334982 691.4027241067844 1061.9233074341903
s 7.818132889192334 -9.177808174269263 16.995941063461597 -9.177808174269263
S 725.3946062337076 1029.9709382348824 725.3946062337076 1061.9233074341903
z" fill="none" stroke="none"></path>
        <circle cx="0" cy="0" r="4.336201209363583" fill="#ff708e">
            <animateMotion begin="-3.9702955331462233s" dur="10s" repeatCount="indefinite">
                <mpath xlink:href="#path20"></mpath>
            </animateMotion>
        </circle>
        <path id="path21" d="M 1441.8669530243387 570.2576723811987
c 0 29.38641759534131 -7.190293666945213 8.440779522066121 -15.631073189011335 8.440779522066121
S 1410.6048066463159 599.64408997654 1410.6048066463159 570.2576723811987
s 7.190293666945213 -8.440779522066121 15.631073189011335 -8.440779522066121
S 1441.8669530243387 540.8712547858574 1441.8669530243387 570.2576723811987
z" fill="none" stroke="none"></path>
        <circle cx="0" cy="0" r="4.645461696516644" fill="#de9dd6">
            <animateMotion begin="-0.3442083767781068s" dur="10s" repeatCount="indefinite">
                <mpath xlink:href="#path21"></mpath>
            </animateMotion>
        </circle>
        <path id="path22" d="M 376.9879294578251 915.3887867058053
c 0 31.60853545391884 -7.734003355746098 9.079047417614987 -16.813050773361084 9.079047417614987
S 343.36182791110286 946.9973221597241 343.36182791110286 915.3887867058053
s 7.734003355746098 -9.079047417614987 16.813050773361084 -9.079047417614987
S 376.9879294578251 883.7802512518864 376.9879294578251 915.3887867058053
z" fill="none" stroke="none"></path>
        <circle cx="0" cy="0" r="3.6329494096186865" fill="#9df871">
            <animateMotion begin="-0.7699140488222023s" dur="10s" repeatCount="indefinite">
                <mpath xlink:href="#path22"></mpath>
            </animateMotion>
        </circle>
        <path id="path23" d="M 692.8822232416981 311.19723266238947
c 0 26.67330928512558 -6.52644801657328 7.6614824542381985 -14.187930470811478 7.6614824542381985
S 664.5063623000751 337.87054194751505 664.5063623000751 311.19723266238947
s 6.52644801657328 -7.6614824542381985 14.187930470811478 -7.6614824542381985
S 692.8822232416981 284.5239233772639 692.8822232416981 311.19723266238947
z" fill="none" stroke="none"></path>
        <circle cx="0" cy="0" r="4.5104285222045775" fill="#ff708e">
            <animateMotion begin="-8.34519437750016s" dur="10s" repeatCount="indefinite">
                <mpath xlink:href="#path23"></mpath>
            </animateMotion>
        </circle>
        <path id="path24" d="M 152.99272899194062 981.4391409312744
c 0 25.998854086441394 -6.361421744554808 7.467755960999124 -13.829177705553931 7.467755960999124
S 125.33437358083275 1007.4379950177158 125.33437358083275 981.4391409312744
s 6.361421744554808 -7.467755960999124 13.829177705553931 -7.467755960999124
S 152.99272899194062 955.440286844833 152.99272899194062 981.4391409312744
z" fill="none" stroke="none"></path>
        <circle cx="0" cy="0" r="4.3294606248807455" fill="#e0ff77">
            <animateMotion begin="-9.290992228662724s" dur="10s" repeatCount="indefinite">
                <mpath xlink:href="#path24"></mpath>
            </animateMotion>
        </circle>
        <path id="path25" d="M 1371.5110958186813 160.86454503626084
c 0 37.04551251782662 -9.064327530957577 10.640732318950201 -19.705059849907776 10.640732318950201
S 1332.100976118866 197.91005755408747 1332.100976118866 160.86454503626084
s 9.064327530957577 -10.640732318950201 19.705059849907776 -10.640732318950201
S 1371.5110958186813 123.81903251843421 1371.5110958186813 160.86454503626084
z" fill="none" stroke="none"></path>
        <circle cx="0" cy="0" r="2.576805790831729" fill="#e0ff77">
            <animateMotion begin="-3.3600188449485815s" dur="10s" repeatCount="indefinite">
                <mpath xlink:href="#path25"></mpath>
            </animateMotion>
        </circle>
        <path id="path26" d="M 1723.2171331043241 614.3309918718456
c 0 33.00528073956889 -8.075760180958344 9.480240212429363 -17.556000393387706 9.480240212429363
S 1688.1051323175489 647.3362726114145 1688.1051323175489 614.3309918718456
s 8.075760180958344 -9.480240212429363 17.556000393387706 -9.480240212429363
S 1723.2171331043241 581.3257111322768 1723.2171331043241 614.3309918718456
z" fill="none" stroke="none"></path>
        <circle cx="0" cy="0" r="2.820815425937413" fill="#ff708e">
            <animateMotion begin="-8.392569819181732s" dur="10s" repeatCount="indefinite">
                <mpath xlink:href="#path26"></mpath>
            </animateMotion>
        </circle>
        <path id="path27" d="M 782.9042022494564 50.12840793556841
c 0 28.619823128928118 -7.002722680482411 8.220587494479354 -15.223310174961764 8.220587494479354
S 752.4575818995329 78.74823106449654 752.4575818995329 50.12840793556841
s 7.002722680482411 -8.220587494479354 15.223310174961764 -8.220587494479354
S 782.9042022494564 21.508584806640293 782.9042022494564 50.12840793556841
z" fill="none" stroke="none"></path>
        <circle cx="0" cy="0" r="3.9042227810028676" fill="#9df871">
            <animateMotion begin="-8.345626731541444s" dur="10s" repeatCount="indefinite">
                <mpath xlink:href="#path27"></mpath>
            </animateMotion>
        </circle>
        <path id="path28" d="M 1501.46170009925 794.6993952918492
c 0 26.56960544320628 -6.5010736722738764 7.631695180495421 -14.132768852769297 7.631695180495421
S 1473.1961623937116 821.2690007350554 1473.1961623937116 794.6993952918492
s 6.5010736722738764 -7.631695180495421 14.132768852769297 -7.631695180495421
S 1501.46170009925 768.129789848643 1501.46170009925 794.6993952918492
z" fill="none" stroke="none"></path>
        <circle cx="0" cy="0" r="3.600921157361481" fill="#9df871">
            <animateMotion begin="-6.675806196561772s" dur="10s" repeatCount="indefinite">
                <mpath xlink:href="#path28"></mpath>
            </animateMotion>
        </circle>
        <path id="path29" d="M 1713.2860462396027 471.4987961336175
c 0 35.19725393572271 -8.612094048102366 10.109849534728866 -18.72194358283123 10.109849534728866
S 1675.8421590739401 506.6960500693402 1675.8421590739401 471.4987961336175
s 8.612094048102366 -10.109849534728866 18.72194358283123 -10.109849534728866
S 1713.2860462396027 436.3015421978948 1713.2860462396027 471.4987961336175
z" fill="none" stroke="none"></path>
        <circle cx="0" cy="0" r="3.819932883837343" fill="#ff708e">
            <animateMotion begin="-6.4019240332048435s" dur="10s" repeatCount="indefinite">
                <mpath xlink:href="#path29"></mpath>
            </animateMotion>
        </circle>
        <path id="path30" d="M 1526.6298238282802 482.0094997392779
c 0 22.019360224242803 -5.38771579954877 6.324709851644209 -11.71242565119298 6.324709851644209
S 1503.2049725258944 504.0288599635207 1503.2049725258944 482.0094997392779
s 5.38771579954877 -6.324709851644209 11.71242565119298 -6.324709851644209
S 1526.6298238282802 459.9901395150351 1526.6298238282802 482.0094997392779
z" fill="none" stroke="none"></path>
        <circle cx="0" cy="0" r="3.060980106689859" fill="#e0ff77">
            <animateMotion begin="-3.596280826813971s" dur="10s" repeatCount="indefinite">
                <mpath xlink:href="#path30"></mpath>
            </animateMotion>
        </circle>
        <path id="path31" d="M 79.96578524836102 486.8905018135475
c 0 28.319747350286985 -6.929299883580857 8.134395515507965 -15.063695399088822 8.134395515507965
S 49.838394450183365 515.2102491638344 49.838394450183365 486.8905018135475
s 6.929299883580857 -8.134395515507965 15.063695399088822 -8.134395515507965
S 79.96578524836102 458.57075446326047 79.96578524836102 486.8905018135475
z" fill="none" stroke="none"></path>
        <circle cx="0" cy="0" r="3.6269328376885652" fill="#e0ff77">
            <animateMotion begin="-9.371616821115314s" dur="10s" repeatCount="indefinite">
                <mpath xlink:href="#path31"></mpath>
            </animateMotion>
        </circle>
        <path id="path32" d="M 1706.8749367614078 75.93115186130699
c 0 31.04866039803751 -7.597012650583645 8.918232241989497 -16.515244892573143 8.918232241989497
S 1673.8444469762617 106.9798122593445 1673.8444469762617 75.93115186130699
s 7.597012650583645 -8.918232241989497 16.515244892573143 -8.918232241989497
S 1706.8749367614078 44.882491463269474 1706.8749367614078 75.93115186130699
z" fill="none" stroke="none"></path>
        <circle cx="0" cy="0" r="2.7358806770305835" fill="#ff708e">
            <animateMotion begin="-3.4977998686145395s" dur="10s" repeatCount="indefinite">
                <mpath xlink:href="#path32"></mpath>
            </animateMotion>
        </circle>
        <path id="path33" d="M 1635.4405874599017 684.6773437096061
c 0 34.81185165314206 -8.517793489598587 9.999148879093994 -18.516942368692582 9.999148879093994
S 1598.4067027225167 719.4891953627482 1598.4067027225167 684.6773437096061
s 8.517793489598587 -9.999148879093994 18.516942368692582 -9.999148879093994
S 1635.4405874599017 649.8654920564641 1635.4405874599017 684.6773437096061
z" fill="none" stroke="none"></path>
        <circle cx="0" cy="0" r="4.257704466869234" fill="#51cacc">
            <animateMotion begin="-6.001810525022666s" dur="10s" repeatCount="indefinite">
                <mpath xlink:href="#path33"></mpath>
            </animateMotion>
        </circle>
        <path id="path34" d="M 395.9042490609616 460.60425085214735
c 0 28.206435826667917 -6.901574723546404 8.101848588510999 -15.003423312057402 8.101848588510999
S 365.8974024368468 488.8106866788153 365.8974024368468 460.60425085214735
s 6.901574723546404 -8.101848588510999 15.003423312057402 -8.101848588510999
S 395.9042490609616 432.3978150254794 395.9042490609616 460.60425085214735
z" fill="none" stroke="none"></path>
        <circle cx="0" cy="0" r="2.725335400264167" fill="#9df871">
            <animateMotion begin="-1.7410324835828084s" dur="10s" repeatCount="indefinite">
                <mpath xlink:href="#path34"></mpath>
            </animateMotion>
        </circle>
        <path id="path35" d="M 1467.2403410912439 129.02216532475887
c 0 35.28999759046043 -8.63478664447436 10.136488669600338 -18.7712753140747 10.136488669600338
S 1429.6977904630944 164.3121629152193 1429.6977904630944 129.02216532475887
s 8.63478664447436 -10.136488669600338 18.7712753140747 -10.136488669600338
S 1467.2403410912439 93.73216773429844 1467.2403410912439 129.02216532475887
z" fill="none" stroke="none"></path>
        <circle cx="0" cy="0" r="2.6735164432747416" fill="#de9dd6">
            <animateMotion begin="-1.89212495207579s" dur="10s" repeatCount="indefinite">
                <mpath xlink:href="#path35"></mpath>
            </animateMotion>
        </circle>
        <path id="path36" d="M 1531.1568960376314 975.2341929045975
c 0 34.60109589368805 -8.466225591008778 9.938612650314653 -18.40483824132343 9.938612650314653
S 1494.3472195549846 1009.8352887982855 1494.3472195549846 975.2341929045975
s 8.466225591008778 -9.938612650314653 18.40483824132343 -9.938612650314653
S 1531.1568960376314 940.6330970109095 1531.1568960376314 975.2341929045975
z" fill="none" stroke="none"></path>
        <circle cx="0" cy="0" r="4.736166895618896" fill="#51cacc">
            <animateMotion begin="-7.881375983893881s" dur="10s" repeatCount="indefinite">
                <mpath xlink:href="#path36"></mpath>
            </animateMotion>
        </circle>
        <path id="path37" d="M 1307.203635628741 443.36977975783554
c 0 30.598292218133285 -7.486816181032611 8.788871169038284 -16.275687350070896 8.788871169038284
S 1274.6522609285992 473.9680719759688 1274.6522609285992 443.36977975783554
s 7.486816181032611 -8.788871169038284 16.275687350070896 -8.788871169038284
S 1307.203635628741 412.77148753970226 1307.203635628741 443.36977975783554
z" fill="none" stroke="none"></path>
        <circle cx="0" cy="0" r="3.2009580748468016" fill="#ff708e">
            <animateMotion begin="-4.6334699305732165s" dur="10s" repeatCount="indefinite">
                <mpath xlink:href="#path37"></mpath>
            </animateMotion>
        </circle>
        <path id="path38" d="M 157.8849132074089 502.0993086301293
c 0 20.06730902794005 -4.910086251517246 5.764014295259376 -10.674100546776621 5.764014295259376
S 136.53671211385566 522.1666176580694 136.53671211385566 502.0993086301293
s 4.910086251517246 -5.764014295259376 10.674100546776621 -5.764014295259376
S 157.8849132074089 482.0319996021893 157.8849132074089 502.0993086301293
z" fill="none" stroke="none"></path>
        <circle cx="0" cy="0" r="3.8899880680950094" fill="#9df871">
            <animateMotion begin="-5.638006018980183s" dur="10s" repeatCount="indefinite">
                <mpath xlink:href="#path38"></mpath>
            </animateMotion>
        </circle>
        <path id="path39" d="M 1899.6527227863146 345.9437312271902
c 0 29.82836792199759 -7.298430448999409 8.567722700999308 -15.866153149998716 8.567722700999308
S 1867.920416486317 375.7720991491878 1867.920416486317 345.9437312271902
s 7.298430448999409 -8.567722700999308 15.866153149998716 -8.567722700999308
S 1899.6527227863146 316.1153633051926 1899.6527227863146 345.9437312271902
z" fill="none" stroke="none"></path>
        <circle cx="0" cy="0" r="3.193423856543265" fill="#de9dd6">
            <animateMotion begin="-2.3486175717084876s" dur="10s" repeatCount="indefinite">
                <mpath xlink:href="#path39"></mpath>
            </animateMotion>
        </circle>
        <path id="path40" d="M 1292.076186293245 260.053167474301
c 0 21.2705330866153 -5.204492138214381 6.109621205729926 -11.314113343944307 6.109621205729926
S 1269.4479596053566 281.3237005609163 1269.4479596053566 260.053167474301
s 5.204492138214381 -6.109621205729926 11.314113343944307 -6.109621205729926
S 1292.076186293245 238.7826343876857 1292.076186293245 260.053167474301
z" fill="none" stroke="none"></path>
        <circle cx="0" cy="0" r="3.2672477133218356" fill="#e0ff77">
            <animateMotion begin="-2.2257105355142714s" dur="10s" repeatCount="indefinite">
                <mpath xlink:href="#path40"></mpath>
            </animateMotion>
        </circle>
        <path id="path41" d="M 264.4996217116069 764.8280113318355
c 0 36.01156629762523 -8.811340689844469 10.343747766339161 -19.15508845618363 10.343747766339161
S 226.18944479923962 800.8395776294607 226.18944479923962 764.8280113318355
s 8.811340689844469 -10.343747766339161 19.15508845618363 -10.343747766339161
S 264.4996217116069 728.8164450342102 264.4996217116069 764.8280113318355
z" fill="none" stroke="none"></path>
        <circle cx="0" cy="0" r="3.935658063130869" fill="#de9dd6">
            <animateMotion begin="-8.695397407089962s" dur="10s" repeatCount="indefinite">
                <mpath xlink:href="#path41"></mpath>
            </animateMotion>
        </circle>
        <path id="path42" d="M 109.94151039782581 102.352136801876
c 0 36.5289849653607 -8.9379431298223 10.492368021965309 -19.430311151787606 10.492368021965309
S 71.0808880942506 138.8811217672367 71.0808880942506 102.352136801876
s 8.9379431298223 -10.492368021965309 19.430311151787606 -10.492368021965309
S 109.94151039782581 65.82315183651531 109.94151039782581 102.352136801876
z" fill="none" stroke="none"></path>
        <circle cx="0" cy="0" r="2.8328738198543126" fill="#e0ff77">
            <animateMotion begin="-0.8837359869819905s" dur="10s" repeatCount="indefinite">
                <mpath xlink:href="#path42"></mpath>
            </animateMotion>
        </circle>
        <path id="path43" d="M 1496.9501055526207 944.2753947081865
c 0 24.02572544054055 -5.8786349482173685 6.901006243559521 -12.77964119177689 6.901006243559521
S 1471.390823169067 968.301120148727 1471.390823169067 944.2753947081865
s 5.8786349482173685 -6.901006243559521 12.77964119177689 -6.901006243559521
S 1496.9501055526207 920.2496692676459 1496.9501055526207 944.2753947081865
z" fill="none" stroke="none"></path>
        <circle cx="0" cy="0" r="2.6743137241719817" fill="#de9dd6">
            <animateMotion begin="-3.651947632609711s" dur="10s" repeatCount="indefinite">
                <mpath xlink:href="#path43"></mpath>
            </animateMotion>
        </circle>
        <path id="path44" d="M 1249.0096542458919 406.90274696154853
c 0 34.83377932943183 -8.52315877209502 10.005447254198504 -18.528606026293524 10.005447254198504
S 1211.9524421933047 441.73652629098035 1211.9524421933047 406.90274696154853
s 8.52315877209502 -10.005447254198504 18.528606026293524 -10.005447254198504
S 1249.0096542458919 372.0689676321167 1249.0096542458919 406.90274696154853
z" fill="none" stroke="none"></path>
        <circle cx="0" cy="0" r="4.852340126352428" fill="#51cacc">
            <animateMotion begin="-9.748068281276701s" dur="10s" repeatCount="indefinite">
                <mpath xlink:href="#path44"></mpath>
            </animateMotion>
        </circle>
        <path id="path45" d="M 384.9740625167981 134.78922996012255
c 0 19.708118991944417 -4.822199327816186 5.660842689175524 -10.48304201699171 5.660842689175524
S 364.0079784828147 154.49734895206697 364.0079784828147 134.78922996012255
s 4.822199327816186 -5.660842689175524 10.48304201699171 -5.660842689175524
S 384.9740625167981 115.08111096817814 384.9740625167981 134.78922996012255
z" fill="none" stroke="none"></path>
        <circle cx="0" cy="0" r="4.529628675554957" fill="#de9dd6">
            <animateMotion begin="-8.23214681535994s" dur="10s" repeatCount="indefinite">
                <mpath xlink:href="#path45"></mpath>
            </animateMotion>
        </circle>
        <path id="path46" d="M 662.9825356734106 117.55274796138964
c 0 28.169626241684668 -6.892568122965397 8.091275622611553 -14.98384374557695 8.091275622611553
S 633.0148481822567 145.7223742030743 633.0148481822567 117.55274796138964
s 6.892568122965397 -8.091275622611553 14.98384374557695 -8.091275622611553
S 662.9825356734106 89.38312171970497 662.9825356734106 117.55274796138964
z" fill="none" stroke="none"></path>
        <circle cx="0" cy="0" r="3.4485790629977906" fill="#e0ff77">
            <animateMotion begin="-7.293179369162875s" dur="10s" repeatCount="indefinite">
                <mpath xlink:href="#path46"></mpath>
            </animateMotion>
        </circle>
        <path id="path47" d="M 1310.7203432150327 1001.516386627753
c 0 35.81192077131277 -8.76249125255525 10.286402774738775 -19.048894027294025 10.286402774738775
S 1272.6225551604448 1037.3283073990658 1272.6225551604448 1001.516386627753
s 8.76249125255525 -10.286402774738775 19.048894027294025 -10.286402774738775
S 1310.7203432150327 965.7044658564403 1310.7203432150327 1001.516386627753
z" fill="none" stroke="none"></path>
        <circle cx="0" cy="0" r="4.583769467934832" fill="#de9dd6">
            <animateMotion begin="-1.8852481749039873s" dur="10s" repeatCount="indefinite">
                <mpath xlink:href="#path47"></mpath>
            </animateMotion>
        </circle>
        <path id="path48" d="M 970.5759891383252 1032.761484967261
c 0 25.69764633577076 -6.287721975773696 7.381238841125644 -13.66896081689934 7.381238841125644
S 943.2380675045265 1058.4591313030317 943.2380675045265 1032.761484967261
s 6.287721975773696 -7.381238841125644 13.66896081689934 -7.381238841125644
S 970.5759891383252 1007.0638386314902 970.5759891383252 1032.761484967261
z" fill="none" stroke="none"></path>
        <circle cx="0" cy="0" r="4.794708377704105" fill="#e0ff77">
            <animateMotion begin="-7.184090855531763s" dur="10s" repeatCount="indefinite">
                <mpath xlink:href="#path48"></mpath>
            </animateMotion>
        </circle>
        <path id="path49" d="M 1604.9683894263 653.8745757820797
c 0 30.095391123632563 -7.363765913229243 8.644420854660417 -16.00818676788966 8.644420854660417
S 1572.952015890521 683.9699669057122 1572.952015890521 653.8745757820797
s 7.363765913229243 -8.644420854660417 16.00818676788966 -8.644420854660417
S 1604.9683894263 623.7791846584471 1604.9683894263 653.8745757820797
z" fill="none" stroke="none"></path>
        <circle cx="0" cy="0" r="4.0063677401326645" fill="#de9dd6">
            <animateMotion begin="-5.57320528617116s" dur="10s" repeatCount="indefinite">
                <mpath xlink:href="#path49"></mpath>
            </animateMotion>
        </circle>
    </g>
</svg>